<svg
  width="10"
  height="10"
  viewBox="0 0 10 10"
  xmlns="http://www.w3.org/2000/svg"
>
  <path
    d="M8.53723 1.46269C6.58691 -0.487631 3.41333 -0.487823 1.46281 1.46269C-0.487701 3.41321 -0.487509 6.5866 1.46281 8.53711C3.41314 10.4876 6.58672 10.4876 8.53723 8.53711C10.4876 6.5866 10.4876 3.41302 8.53723 1.46269ZM6.97267 6.97254C6.8224 7.1228 6.57883 7.1228 6.42857 6.97254L5.00002 5.544L3.50356 7.04046C3.3533 7.19072 3.10973 7.19072 2.95947 7.04046C2.80921 6.8902 2.80921 6.64662 2.95947 6.49636L4.45593 4.9999L3.02738 3.57136C2.87712 3.4211 2.87712 3.17733 3.02738 3.02726C3.17764 2.877 3.42122 2.877 3.57148 3.02726L5.00002 4.4558L6.36046 3.09537C6.51072 2.94511 6.7543 2.94511 6.90456 3.09537C7.05482 3.24563 7.05482 3.4892 6.90456 3.63947L5.54412 4.9999L6.97267 6.42845C7.12293 6.57871 7.12293 6.82228 6.97267 6.97254Z"
  />
</svg>
