<svg
  width="16"
  height="16"
  viewBox="0 0 16 16"
  xmlns="http://www.w3.org/2000/svg"
>
  <g clip-path="url(#clip0)">
    <path
      d="M11.6221 1.37246H8.61053V0H4.52089V1.37246H1.50928V3.5395H11.6221V1.37246ZM5.60441 1.08352H7.52701V1.37246H5.60441V1.08352Z"
    />
    <path
      d="M10.6598 7.74031L10.8642 4.62302H2.26709L2.9539 15.0971H7.07748C6.54074 14.3362 6.22504 13.4087 6.22504 12.4088C6.22504 9.91168 8.19322 7.8656 10.6598 7.74031Z"
    />
    <path
      d="M10.8998 8.81775C8.91958 8.81775 7.30859 10.4287 7.30859 12.4089C7.30859 14.389 8.91958 16 10.8998 16C12.8799 16 14.4909 14.3891 14.4909 12.4089C14.4909 10.4287 12.8799 8.81775 10.8998 8.81775ZM12.8565 13.5994L12.0903 14.3656L10.8998 13.175L9.70921 14.3656L8.94305 13.5994L10.1336 12.4089L8.94305 11.2183L9.70921 10.4522L10.8998 11.6427L12.0903 10.4522L12.8565 11.2183L11.6659 12.4089L12.8565 13.5994Z"
    />
  </g>
  <defs>
    <clipPath id="clip0">
      <rect
        width="16"
        height="16"
      />
    </clipPath>
  </defs>
</svg>
