<svg
  width="16"
  height="14"
  viewBox="0 0 16 14"
  xmlns="http://www.w3.org/2000/svg"
>
  <path d="M15.8592 12.1157L8.8395 0.474125C8.66209 0.179906 8.34356 0 7.99997 0C7.65637 0 7.33784 0.179875 7.16044 0.474125L0.140811 12.1157C-0.0417515 12.4184 -0.0471578 12.7961 0.126717 13.1039C0.300592 13.4118 0.626748 13.6022 0.980311 13.6022H15.0197C15.3732 13.6022 15.6994 13.4118 15.8732 13.1039C16.0471 12.7961 16.0417 12.4184 15.8592 12.1157ZM8.00522 4.02694C8.40837 4.02694 8.7495 4.25437 8.7495 4.6575C8.7495 5.88759 8.60478 7.65528 8.60478 8.88538C8.60478 9.20584 8.25331 9.34019 8.00522 9.34019C7.67447 9.34019 7.39534 9.20581 7.39534 8.88538C7.39534 7.65528 7.25065 5.88759 7.25065 4.6575C7.25065 4.25437 7.5814 4.02694 8.00522 4.02694ZM8.01556 11.6454C7.56075 11.6454 7.21959 11.2733 7.21959 10.8495C7.21959 10.4153 7.56072 10.0535 8.01556 10.0535C8.43937 10.0535 8.80119 10.4153 8.80119 10.8495C8.80119 11.2733 8.43937 11.6454 8.01556 11.6454Z"/>
</svg>
