<svg width="28" height="28" viewBox="0 0 28 28" fill="none" xmlns="http://www.w3.org/2000/svg">
<g id="Solid/Interface/Trash">
<g id="Icon">
<path d="M10.7917 3.5C10.7917 3.01675 11.1834 2.625 11.6667 2.625H16.3333C16.8166 2.625 17.2083 3.01675 17.2083 3.5V4.375H22.1667C22.6499 4.375 23.0417 4.76675 23.0417 5.25C23.0417 5.73325 22.6499 6.125 22.1667 6.125H5.83333C5.35008 6.125 4.95833 5.73325 4.95833 5.25C4.95833 4.76675 5.35008 4.375 5.83333 4.375H10.7917V3.5Z" fill="#F14848"/>
<path fill-rule="evenodd" clip-rule="evenodd" d="M7.27987 9.26891C7.3127 8.9735 7.5624 8.75 7.85964 8.75H20.1403C20.4376 8.75 20.6873 8.9735 20.7201 9.26891L20.9536 11.3705C21.3745 15.1586 21.3745 18.9817 20.9536 22.7699L20.9306 22.9768C20.7773 24.3564 19.7081 25.4566 18.3333 25.649C15.4584 26.0515 12.5415 26.0515 9.66669 25.649C8.29193 25.4566 7.22265 24.3564 7.06935 22.9768L7.04637 22.7699C6.62546 18.9817 6.62546 15.1586 7.04637 11.3705L7.27987 9.26891ZM12.5417 13.3C12.5417 12.8167 12.1499 12.425 11.6667 12.425C11.1834 12.425 10.7917 12.8167 10.7917 13.3L10.7917 21.4667C10.7917 21.9499 11.1834 22.3417 11.6667 22.3417C12.1499 22.3417 12.5417 21.9499 12.5417 21.4667L12.5417 13.3ZM17.2083 13.3C17.2083 12.8167 16.8166 12.425 16.3333 12.425C15.8501 12.425 15.4583 12.8167 15.4583 13.3V21.4667C15.4583 21.9499 15.8501 22.3417 16.3333 22.3417C16.8166 22.3417 17.2083 21.9499 17.2083 21.4667V13.3Z" fill="#F14848"/>
</g>
</g>
</svg>
